<svg width="878.67001953125px" height="108.782421875px" xmlns="http://www.w3.org/2000/svg" viewBox="-189.335009765625 20.6087890625 878.67001953125 108.782421875" style="background:#444" preserveAspectRatio="xMidYMid"><defs><filter id="editing-crystal" x="-100%" y="-100%" width="300%" height="300%"><feMorphology operator="dilate" radius="2" in="SourceGraphic" result="border"></feMorphology><feFlood flood-color="#fff" result="black"></feFlood><feMorphology operator="dilate" radius="2" in="SourceGraphic" result="erode"></feMorphology><feGaussianBlur in="erode" stdDeviation="4" result="blur"></feGaussianBlur><feOffset in="blur" dx="2" dy="2" result="offset"></feOffset><feComposite operator="atop" in="offset" in2="black" result="merge"></feComposite><feComposite operator="in" in="merge" in2="SourceGraphic" result="inner-shadow"></feComposite><feGaussianBlur in="SourceGraphic" stdDeviation="2.5" result="shadow1"></feGaussianBlur><feOffset in="shadow1" dx="0" dy="5" result="shadow"></feOffset><feSpecularLighting in="SourceGraphic" result="specular" surfaceScale="1.5" specularConstant="100" specularExponent="10" lighting-color="#fff"><fePointLight x="250" y="-300" z="-400"></fePointLight></feSpecularLighting><feGaussianBlur in="specular" stdDeviation="1" result="specular2"></feGaussianBlur><feComposite operator="in" in="specular2" in2="SourceAlpha" result="specular3"></feComposite><feMerge result="merge"><feMergeNode in="border"></feMergeNode><feMergeNode in="inner-shadow"></feMergeNode><feMergeNode in="specular3"></feMergeNode></feMerge><feComponentTransfer in="merge" result="final"><feFuncA type="linear" slope="0.9" intercept="0"></feFuncA></feComponentTransfer><feMerge><feMergeNode in="shadow"></feMergeNode><feMergeNode in="final"></feMergeNode></feMerge></filter></defs><g filter="url(#editing-crystal)"><g transform="translate(-64.48750239610672, 96.10812568664551)"><path d="M33.79-1.22L36.61-1.66L28.35-30.02L19.78-1.66L22.59-1.22L22.53 0L11.78 0L11.71-1.22L13.70-1.66L1.28-37.06L-0.64-37.50L-0.58-38.72L11.20-38.72L11.26-37.38L8.45-37.06L9.98-28.54L17.02-6.40L25.54-37.06L22.72-37.38L22.78-38.72L34.56-38.72L34.62-37.38L31.81-37.06L40.19-6.40L47.17-28.54L48.64-37.06L45.82-37.38L45.89-38.72L57.09-38.72L57.15-37.50L55.23-37.06L42.43-1.66L44.48-1.22L44.42 0L33.86 0L33.79-1.22ZM70.46 0L59.71 0L59.65-1.22L61.57-1.66L62.14-11.52L62.14-27.26L61.57-36.93L59.39-37.38L59.46-38.59L67.71-39.30L67.07-27.26L67.07-22.85L67.07-22.85Q71.55-26.50 75.74-26.50L75.74-26.50L75.74-26.50Q79.94-26.50 82.02-24.06L82.02-24.06L82.02-24.06Q84.10-21.63 84.10-17.28L84.10-17.28L84.10-11.39L84.61-1.66L86.53-1.22L86.46 0L75.90 0L75.84-1.34L78.59-1.66L79.17-11.39L79.17-17.02L79.17-17.02Q79.17-19.46 77.79-20.77L77.79-20.77L77.79-20.77Q76.42-22.08 73.47-22.08L73.47-22.08L73.47-22.08Q70.53-22.08 67.07-19.52L67.07-19.52L67.07-11.52L67.65-1.66L70.53-1.34L70.46 0ZM102.02 0L92.29 0L92.22-1.22L94.14-1.66L94.72-11.33L94.72-14.14L94.14-23.81L91.97-24.26L92.03-25.47L100.29-26.18L99.65-14.14L99.65-11.33L100.16-1.66L102.08-1.22L102.02 0ZM101.50-35.39L101.50-35.39L101.50-35.39Q100.54-32.45 97.22-31.10L97.22-31.10L97.22-31.10Q94.14-32.13 92.93-35.39L92.93-35.39L92.93-35.39Q94.21-38.66 97.22-39.68L97.22-39.68L97.22-39.68Q99.01-38.91 100-37.95L100-37.95L100-37.95Q100.99-36.99 101.50-35.39ZM119.68 0.96L119.68 0.96Q114.11 0.96 110.82-2.78L110.82-2.78L110.82-2.78Q107.52-6.53 107.52-12.77L107.52-12.77L107.52-12.77Q107.52-19.01 111.36-22.75L111.36-22.75L111.36-22.75Q115.20-26.50 121.60-26.50L121.60-26.50L121.60-26.50Q124.35-26.50 127.49-25.86L127.49-25.86L128-27.26L129.02-27.26L128.58-18.43L127.49-18.43L127.30-20.86L127.30-20.86Q123.71-22.85 120.54-22.85L120.54-22.85L120.54-22.85Q117.38-22.85 115.20-20.06L115.20-20.06L115.20-20.06Q113.02-17.28 113.02-12.77L113.02-12.77L113.02-12.77Q113.02-8.26 115.04-5.44L115.04-5.44L115.04-5.44Q117.06-2.62 120.64-2.62L120.64-2.62L120.64-2.62Q124.22-2.62 127.62-5.06L127.62-5.06L128.70-7.62L129.86-7.36L127.87 1.66L126.59 1.66L126.66 0L126.66 0Q123.26 0.96 119.68 0.96L119.68 0.96ZM145.73 0L134.98 0L134.91-1.22L136.83-1.66L137.41-11.52L137.41-27.26L136.83-36.93L134.66-37.38L134.72-38.59L142.98-39.30L142.34-27.26L142.34-22.85L142.34-22.85Q146.82-26.50 151.01-26.50L151.01-26.50L151.01-26.50Q155.20-26.50 157.28-24.06L157.28-24.06L157.28-24.06Q159.36-21.63 159.36-17.28L159.36-17.28L159.36-11.39L159.87-1.66L161.79-1.22L161.73 0L151.17 0L151.10-1.34L153.86-1.66L154.43-11.39L154.43-17.02L154.43-17.02Q154.43-19.46 153.06-20.77L153.06-20.77L153.06-20.77Q151.68-22.08 148.74-22.08L148.74-22.08L148.74-22.08Q145.79-22.08 142.34-19.52L142.34-19.52L142.34-11.52L142.91-1.66L145.79-1.34L145.73 0ZM205.95-31.17L205.63-33.73L198.78-34.37L189.31-34.37L188.74-26.05L188.74-23.10L201.02-23.10L201.54-24.96L202.75-24.96L202.37-16.19L201.15-16.19L200.83-18.75L188.74-18.75L188.74-12.61L189.31-4.35L198.78-4.35L206.14-5.06L207.23-7.62L208.32-7.36L206.34 1.73L205.18 1.66L205.25 0L181.06 0L180.99-1.22L182.91-1.66L183.68-12.67L183.68-26.11L182.91-37.06L180.99-37.50L181.06-38.72L205.82-38.72L206.34-40.58L207.55-40.58L207.17-31.17L205.95-31.17ZM239.87-0.06L231.94 0.51L231.94-2.11L231.94-2.11Q228.42 0.96 224.29 0.96L224.29 0.96L224.29 0.96Q220.16 0.96 217.28-2.72L217.28-2.72L217.28-2.72Q214.40-6.40 214.40-12.58L214.40-12.58L214.40-12.58Q214.40-18.75 217.98-22.62L217.98-22.62L217.98-22.62Q221.57-26.50 227.84-26.50L227.84-26.50L227.84-26.50Q229.89-26.50 232.26-25.98L232.26-25.98L232.26-27.39L231.68-36.93L228.86-37.38L228.93-38.59L237.82-39.30L237.18-27.33L237.18-11.39L237.76-1.73L239.94-1.28L239.87-0.06ZM221.66-20.64L221.66-20.64L221.66-20.64Q219.90-18.30 219.90-13.25L219.90-13.25L219.90-13.25Q219.90-8.19 221.66-5.41L221.66-5.41L221.66-5.41Q223.42-2.62 226.27-2.62L226.27-2.62L226.27-2.62Q229.12-2.62 231.94-5.44L231.94-5.44L232.26-11.33L232.26-22.27L232.26-22.27Q229.18-22.98 227.20-22.98L227.20-22.98L227.20-22.98Q223.42-22.98 221.66-20.64ZM248.13-8.26L248.13-14.14L247.55-23.81L245.38-24.26L245.44-25.47L253.70-26.18L253.06-14.14L253.06-8.51L253.06-8.51Q253.06-6.08 254.43-4.77L254.43-4.77L254.43-4.77Q255.81-3.46 258.82-3.46L258.82-3.46L258.82-3.46Q261.82-3.46 264.83-5.76L264.83-5.76L265.15-11.39L265.15-14.14L264.58-23.81L262.40-24.26L262.46-25.47L270.72-26.18L270.08-14.14L270.08-11.39L270.66-1.73L272.83-1.28L272.77-0.06L264.51 0.64L264.64-2.30L264.64-2.30Q260.42 0.96 256.35 0.96L256.35 0.96L256.35 0.96Q252.29 0.96 250.21-1.47L250.21-1.47L250.21-1.47Q248.13-3.90 248.13-8.26L248.13-8.26ZM290.11 0.96L290.11 0.96Q284.54 0.96 281.25-2.78L281.25-2.78L281.25-2.78Q277.95-6.53 277.95-12.77L277.95-12.77L277.95-12.77Q277.95-19.01 281.79-22.75L281.79-22.75L281.79-22.75Q285.63-26.50 292.03-26.50L292.03-26.50L292.03-26.50Q294.78-26.50 297.92-25.86L297.92-25.86L298.43-27.26L299.46-27.26L299.01-18.43L297.92-18.43L297.73-20.86L297.73-20.86Q294.14-22.85 290.98-22.85L290.98-22.85L290.98-22.85Q287.81-22.85 285.63-20.06L285.63-20.06L285.63-20.06Q283.46-17.28 283.46-12.77L283.46-12.77L283.46-12.77Q283.46-8.26 285.47-5.44L285.47-5.44L285.47-5.44Q287.49-2.62 291.07-2.62L291.07-2.62L291.07-2.62Q294.66-2.62 298.05-5.06L298.05-5.06L299.14-7.62L300.29-7.36L298.30 1.66L297.02 1.66L297.09 0L297.09 0Q293.70 0.96 290.11 0.96L290.11 0.96ZM306.30-27.20L307.33-27.20L307.90-25.79L307.90-25.79Q312.00-26.50 314.88-26.50L314.88-26.50L314.88-26.50Q320.32-26.50 323.23-24.22L323.23-24.22L323.23-24.22Q326.14-21.95 326.14-17.66L326.14-17.66L326.02-11.33L326.59-1.73L328.77-1.28L328.70-0.06L320.77 0.51L320.77-2.11L320.77-2.11Q316.99 0.96 313.09 0.96L313.09 0.96L313.09 0.96Q309.18 0.96 306.98-1.15L306.98-1.15L306.98-1.15Q304.77-3.26 304.77-6.98L304.77-6.98L304.77-6.98Q304.77-10.69 307.97-12.51L307.97-12.51L307.97-12.51Q311.17-14.34 321.22-16L321.22-16L321.22-17.66L321.22-17.66Q321.22-20.16 319.78-21.54L319.78-21.54L319.78-21.54Q318.34-22.91 315.52-22.91L315.52-22.91L315.52-22.91Q312.70-22.91 308.29-21.06L308.29-21.06L308.03-18.69L306.94-18.62L306.30-27.20ZM321.09-12.35L321.09-12.35Q314.50-11.14 312.35-10.14L312.35-10.14L312.35-10.14Q310.21-9.15 310.21-7.17L310.21-7.17L310.21-7.17Q310.21-5.18 311.55-3.90L311.55-3.90L311.55-3.90Q312.90-2.62 315.42-2.62L315.42-2.62L315.42-2.62Q317.95-2.62 320.77-5.44L320.77-5.44L321.09-12.35ZM336-6.91L336-6.91L336.26-22.40L332.93-22.27L332.93-24.38L336.26-25.54L339.78-31.94L340.80-31.94L341.18-25.54L347.65-25.54L347.33-22.78L341.18-22.53L341.18-8.13L341.18-8.13Q341.18-4.03 342.02-2.85L342.02-2.85L342.02-2.85Q342.85-1.66 345.79-1.66L345.79-1.66L348.29-1.66L348.42-0.58L348.42-0.58Q346.05 0.96 342.53 0.96L342.53 0.96L342.53 0.96Q339.01 0.96 337.50-0.83L337.50-0.83L337.50-0.83Q336-2.62 336-6.91ZM363.58-2.62L363.58-2.62L363.58-2.62Q370.37-2.62 370.37-12.03L370.37-12.03L370.37-12.03Q370.37-22.91 362.50-22.91L362.50-22.91L362.50-22.91Q358.98-22.91 357.41-20.70L357.41-20.70L357.41-20.70Q355.84-18.50 355.84-13.18L355.84-13.18L355.84-13.18Q355.84-2.62 363.58-2.62ZM362.94 0.96L362.94 0.96L362.94 0.96Q356.99 0.96 353.66-2.53L353.66-2.53L353.66-2.53Q350.34-6.02 350.34-12.38L350.34-12.38L350.34-12.38Q350.34-18.75 353.86-22.62L353.86-22.62L353.86-22.62Q357.38-26.50 363.36-26.50L363.36-26.50L363.36-26.50Q369.34-26.50 372.64-23.07L372.64-23.07L372.64-23.07Q375.94-19.65 375.94-13.22L375.94-13.22L375.94-13.22Q375.94-6.78 372.42-2.91L372.42-2.91L372.42-2.91Q368.90 0.96 362.94 0.96ZM381.38-24.26L381.44-25.47L389.70-26.18L389.44-21.95L389.44-21.95Q391.10-24.64 392.45-25.57L392.45-25.57L392.45-25.57Q393.79-26.50 395.71-26.50L395.71-26.50L395.71-26.50Q397.63-26.50 399.49-26.18L399.49-26.18L399.17-18.75L398.08-18.75L397.63-21.50L397.63-21.50Q395.78-22.14 394.53-22.14L394.53-22.14L394.53-22.14Q393.28-22.14 392.19-21.50L392.19-21.50L392.19-21.50Q391.10-20.86 389.31-18.88L389.31-18.88L389.06-14.14L389.06-11.33L389.57-1.66L393.41-1.22L393.34 0L381.70 0L381.63-1.22L383.55-1.66L384.13-11.33L384.13-14.14L383.55-23.81L381.38-24.26ZM440.64-1.66L439.04-9.66L437.82-13.06L423.23-13.06L421.95-9.66L420.03-1.66L422.78-1.34L422.72 0L412.03 0L411.97-1.22L413.89-1.66L428.35-37.06L425.92-37.50L425.98-38.72L436.48-38.72L436.54-37.50L434.11-37.06L447.49-1.66L449.41-1.22L449.34 0L437.95 0L437.89-1.34L440.64-1.66ZM436.29-17.34L430.85-32.45L424.90-17.34L436.29-17.34ZM451.65-24.26L451.71-25.47L459.97-26.18L459.71-21.95L459.71-21.95Q461.38-24.64 462.72-25.57L462.72-25.57L462.72-25.57Q464.06-26.50 465.98-26.50L465.98-26.50L465.98-26.50Q467.90-26.50 469.76-26.18L469.76-26.18L469.44-18.75L468.35-18.75L467.90-21.50L467.90-21.50Q466.05-22.14 464.80-22.14L464.80-22.14L464.80-22.14Q463.55-22.14 462.46-21.50L462.46-21.50L462.46-21.50Q461.38-20.86 459.58-18.88L459.58-18.88L459.33-14.14L459.33-11.33L459.84-1.66L463.68-1.22L463.62 0L451.97 0L451.90-1.22L453.82-1.66L454.40-11.33L454.40-14.14L453.82-23.81L451.65-24.26ZM484.35 0.96L484.35 0.96L484.35 0.96Q479.23 0.96 475.94-2.56L475.94-2.56L475.94-2.56Q472.64-6.08 472.64-12.32L472.64-12.32L472.64-12.32Q472.64-18.56 476.03-22.53L476.03-22.53L476.03-22.53Q479.42-26.50 485.02-26.50L485.02-26.50L485.02-26.50Q490.62-26.50 493.31-23.94L493.31-23.94L493.31-23.94Q496.00-21.38 496.00-15.94L496.00-15.94L496.00-15.94Q496.00-14.40 495.81-12.67L495.81-12.67L478.14-12.67L478.14-12.67Q478.14-8.13 480.13-5.38L480.13-5.38L480.13-5.38Q482.11-2.62 485.82-2.62L485.82-2.62L485.82-2.62Q489.54-2.62 493.25-5.44L493.25-5.44L493.70-8.06L494.78-8L495.23 0.90L494.21 0.90L493.63-0.58L493.63-0.58Q489.47 0.96 484.35 0.96ZM478.27-16L478.27-16L490.69-16.06L490.69-16.06Q490.69-19.71 489.28-21.31L489.28-21.31L489.28-21.31Q487.87-22.91 484.86-22.91L484.86-22.91L484.86-22.91Q478.91-22.91 478.27-16ZM522.62-37.38L520.13-37.06L522.50-30.21L527.87-20.16L533.38-30.08L535.74-37.06L533.06-37.38L533.12-38.72L543.74-38.72L543.81-37.50L541.89-37.06L530.05-16.32L530.05-12.61L530.82-1.66L533.70-1.22L533.63 0L521.41 0L521.34-1.22L524.22-1.66L524.99-12.67L524.99-15.49L512.96-37.06L511.04-37.50L511.10-38.72L522.56-38.72L522.62-37.38ZM559.30-2.62L559.30-2.62L559.30-2.62Q566.08-2.62 566.08-12.03L566.08-12.03L566.08-12.03Q566.08-22.91 558.21-22.91L558.21-22.91L558.21-22.91Q554.69-22.91 553.12-20.70L553.12-20.70L553.12-20.70Q551.55-18.50 551.55-13.18L551.55-13.18L551.55-13.18Q551.55-2.62 559.30-2.62ZM558.66 0.96L558.66 0.96L558.66 0.96Q552.70 0.96 549.38-2.53L549.38-2.53L549.38-2.53Q546.05-6.02 546.05-12.38L546.05-12.38L546.05-12.38Q546.05-18.75 549.57-22.62L549.57-22.62L549.57-22.62Q553.09-26.50 559.07-26.50L559.07-26.50L559.07-26.50Q565.06-26.50 568.35-23.07L568.35-23.07L568.35-23.07Q571.65-19.65 571.65-13.22L571.65-13.22L571.65-13.22Q571.65-6.78 568.13-2.91L568.13-2.91L568.13-2.91Q564.61 0.96 558.66 0.96ZM579.52-8.26L579.52-14.14L578.94-23.81L576.77-24.26L576.83-25.47L585.09-26.18L584.45-14.14L584.45-8.51L584.45-8.51Q584.45-6.08 585.82-4.77L585.82-4.77L585.82-4.77Q587.20-3.46 590.21-3.46L590.21-3.46L590.21-3.46Q593.22-3.46 596.22-5.76L596.22-5.76L596.54-11.39L596.54-14.14L595.97-23.81L593.79-24.26L593.86-25.47L602.11-26.18L601.47-14.14L601.47-11.39L602.05-1.73L604.22-1.28L604.16-0.06L595.90 0.64L596.03-2.30L596.03-2.30Q591.81 0.96 587.74 0.96L587.74 0.96L587.74 0.96Q583.68 0.96 581.60-1.47L581.60-1.47L581.60-1.47Q579.52-3.90 579.52-8.26L579.52-8.26ZM628.74-32.26L628.74-32.26L628.74-32.26Q628.74-28.93 626.66-26.05L626.66-26.05L626.66-26.05Q624.58-23.17 618.56-17.28L618.56-17.28L618.56-17.28Q617.09-15.81 617.09-12.16L617.09-12.16L615.55-11.84L615.55-11.84Q615.04-14.02 615.04-16.32L615.04-16.32L615.04-16.32Q615.04-18.62 615.87-20L615.87-20L615.87-20Q616.70-21.38 617.89-22.53L617.89-22.53L617.89-22.53Q619.07-23.68 620.22-24.90L620.22-24.90L620.22-24.90Q623.10-27.84 623.10-31.36L623.10-31.36L623.10-31.36Q623.10-33.47 621.50-34.78L621.50-34.78L621.50-34.78Q619.90-36.10 616.80-36.10L616.80-36.10L616.80-36.10Q613.70-36.10 610.88-34.11L610.88-34.11L610.62-31.36L609.54-31.30L608.70-38.40L608.70-38.40Q612.22-39.68 617.92-39.68L617.92-39.68L617.92-39.68Q628.74-39.68 628.74-32.26ZM620.99-3.46L620.99-3.46L620.99-3.46Q619.97-0.32 616.45 1.02L616.45 1.02L616.45 1.02Q613.25 0.06 611.97-3.46L611.97-3.46L611.97-3.46Q613.25-6.98 616.45-8L616.45-8L616.45-8Q620.03-6.59 620.99-3.46Z" fill="#000000" stroke="#88e0eb" stroke-width="1.5"></path></g></g><style>text {
  font-size: 64px;
  font-family: Arial Black;
  dominant-baseline: central;
  text-anchor: middle;
}</style></svg>